<?xml version="1.0" encoding="iso-8859-1"?>
<!-- Generator: Adobe Illustrator 17.1.0, SVG Export Plug-In . SVG Version: 6.00 Build 0)  -->
<!DOCTYPE svg PUBLIC "-//W3C//DTD SVG 1.1//EN" "http://www.w3.org/Graphics/SVG/1.1/DTD/svg11.dtd">
<svg xmlns="http://www.w3.org/2000/svg" xmlns:xlink="http://www.w3.org/1999/xlink" version="1.1" id="Capa_1" x="0px" y="0px" viewBox="0 0 189.932 189.932" style="enable-background:new 0 0 189.932 189.932;" xml:space="preserve" width="512px" height="512px">
<path d="M141.829,5.576H28.293c-7.596,0-13.92,5.496-15.236,12.718H5c-2.762,0-5,2.238-5,5s2.238,5,5,5h7.793v5.928H5  c-2.762,0-5,2.238-5,5s2.238,5,5,5h7.793v5.927H5c-2.762,0-5,2.238-5,5s2.238,5,5,5h7.793v5.927H5c-2.762,0-5,2.238-5,5s2.238,5,5,5  h7.793v5.928H5c-2.762,0-5,2.238-5,5s2.238,5,5,5h7.793v5.927H5c-2.762,0-5,2.238-5,5s2.238,5,5,5h7.793v5.928H5  c-2.762,0-5,2.238-5,5s2.238,5,5,5h7.793v5.927H5c-2.762,0-5,2.238-5,5s2.238,5,5,5h7.793v5.927H5c-2.762,0-5,2.238-5,5s2.238,5,5,5  h7.793v5.928H5c-2.762,0-5,2.238-5,5s2.238,5,5,5h8.057c1.316,7.222,7.64,12.718,15.236,12.718h113.536  c8.547,0,15.5-6.953,15.5-15.5V21.076C157.329,12.529,150.376,5.576,141.829,5.576z M29.592,32.147  c1.957-1.946,5.124-1.936,7.071,0.022l1.201,1.208l1.318-0.643l6.991-8.473c1.757-2.13,4.907-2.435,7.038-0.675  c2.13,1.757,2.433,4.908,0.675,7.038L42.495,44.432c-0.898,1.089-2.215,1.748-3.625,1.813c-0.077,0.003-0.154,0.005-0.231,0.005  c-1.328,0-2.605-0.529-3.547-1.476l-5.522-5.557C27.623,37.26,27.633,34.094,29.592,32.147z M53.886,126.979l-11.391,13.807  c-0.898,1.089-2.215,1.748-3.625,1.813c-0.077,0.003-0.154,0.005-0.231,0.005c-1.328,0-2.605-0.529-3.547-1.476l-5.522-5.557  c-1.946-1.958-1.937-5.124,0.022-7.071c1.957-1.946,5.124-1.937,7.071,0.022l1.201,1.208l1.318-0.643l6.991-8.473  c1.757-2.13,4.907-2.435,7.038-0.675C55.341,121.698,55.644,124.849,53.886,126.979z M53.886,94.862l-11.391,13.806  c-0.898,1.09-2.215,1.748-3.625,1.813c-0.077,0.003-0.155,0.005-0.231,0.005c-1.328,0-2.605-0.529-3.547-1.476l-5.522-5.557  c-1.946-1.958-1.937-5.124,0.022-7.071c1.957-1.946,5.124-1.936,7.071,0.022l1.201,1.208l1.318-0.643l6.99-8.472  c1.757-2.13,4.907-2.435,7.038-0.675C55.342,89.581,55.644,92.732,53.886,94.862z M53.886,62.744L42.495,76.549  c-0.898,1.09-2.215,1.748-3.625,1.813c-0.077,0.003-0.155,0.005-0.231,0.005c-1.328,0-2.605-0.529-3.547-1.476l-5.522-5.557  c-1.946-1.958-1.937-5.124,0.022-7.071c1.957-1.946,5.124-1.936,7.071,0.022l1.202,1.209l1.318-0.643l6.99-8.472  c1.757-2.129,4.907-2.435,7.038-0.675C55.342,57.462,55.644,60.614,53.886,62.744z M135.237,135.701H69.963c-2.762,0-5-2.238-5-5  s2.238-5,5-5h65.274c2.762,0,5,2.238,5,5S137.999,135.701,135.237,135.701z M135.237,103.583H69.963c-2.762,0-5-2.238-5-5  s2.238-5,5-5h65.274c2.762,0,5,2.238,5,5S137.999,103.583,135.237,103.583z M135.237,71.465H69.963c-2.762,0-5-2.238-5-5  s2.238-5,5-5h65.274c2.762,0,5,2.238,5,5S137.999,71.465,135.237,71.465z M135.237,39.347H69.963c-2.762,0-5-2.238-5-5s2.238-5,5-5  h65.274c2.762,0,5,2.238,5,5S137.999,39.347,135.237,39.347z M189.932,42.038v137.318c0,2.762-2.238,5-5,5h-11.727  c-2.762,0-5-2.238-5-5V42.038c0-0.026,0.007-0.05,0.008-0.076c0.005-0.297,0.028-0.596,0.087-0.893l0.006-0.03  c0.001-0.006,0.002-0.011,0.003-0.017l5.854-29.65c0.463-2.343,2.518-4.031,4.905-4.031s4.442,1.688,4.905,4.031l5.854,29.65  c0.001,0.006,0.002,0.011,0.003,0.017l0.006,0.03c0.059,0.297,0.083,0.595,0.087,0.893  C189.924,41.988,189.932,42.011,189.932,42.038z" fill="#ffffff"/>
<g>
</g>
<g>
</g>
<g>
</g>
<g>
</g>
<g>
</g>
<g>
</g>
<g>
</g>
<g>
</g>
<g>
</g>
<g>
</g>
<g>
</g>
<g>
</g>
<g>
</g>
<g>
</g>
<g>
</g>
</svg>
